<svg xmlns="http://www.w3.org/2000/svg" width="1280" height="420" viewBox="0 0 1280 420"><rect width="1280" height="420" fill="#0b0c0b"/>
 <defs><pattern id="grid" width="32" height="32" patternUnits="userSpaceOnUse"><circle cx="1" cy="1" r=".7" fill="#293129"/></pattern><linearGradient id="fade"><stop stop-color="#0b0c0b"/><stop offset="1" stop-color="#0b0c0b" stop-opacity="0"/></linearGradient></defs>
 <rect x="710" width="570" height="420" fill="url(#grid)"/><rect x="710" width="100" height="420" fill="url(#fade)"/>
 <svg x="54" y="37" width="42" height="34" viewBox="136 232 982 772" fill="#f5f5f0"><path d="M613.5 239.5L614 827.6L442.5 1000L142 1000L216.5 882L397 882Q399.5 881.5 401 880L524 758.9L523.6 599.3L505 621L394.7 797L252 797L502 353.2Z"/><path d="M640.5 239.5L640 827.6L811.5 1000L1112 1000L1037.5 882L857 882Q854.5 881.5 853 880L730 758.9L730.4 599.3L749 621L859.3 797L1002 797L752 353.2Z"/></svg>
 <text x="110" y="63" font-family="Arial,sans-serif" font-weight="700" font-size="29" letter-spacing="-1" fill="#f5f5f0">Anyroute</text>
 <rect x="1123" y="48" width="6" height="6" fill="#1fe15a"/><text x="1142" y="56" font-family="monospace" font-size="11" fill="#a4b3a5">BUILDING</text>
 <text x="54" y="158" font-family="Arial,sans-serif" font-weight="700" font-size="57" letter-spacing="-2.8" fill="#f5f5f0">Any model. One key.</text>
 <text x="54" y="222" font-family="Arial,sans-serif" font-weight="700" font-size="57" letter-spacing="-2.8" fill="#1fe15a">Paid per call.</text>
 <text x="57" y="275" font-family="Arial,sans-serif" font-size="17" fill="#a4b3a5">OpenRouter-compatible inference. Verifiable receipts.</text>
 <path d="M792 204 L870 113 H1109" fill="none" stroke="#303930" stroke-width="1.5"/><rect x="965" y="96" width="145" height="34" fill="#131813" stroke="#303930"/><text x="981" y="118" font-family="monospace" font-size="12" letter-spacing="2" fill="#a4b3a5">PRICE</text><path d="M792 204 L870 204 H1109" fill="none" stroke="#303930" stroke-width="1.5"/><rect x="965" y="187" width="145" height="34" fill="#131813" stroke="#303930"/><text x="981" y="209" font-family="monospace" font-size="12" letter-spacing="2" fill="#a4b3a5">UPTIME</text><path d="M792 204 L870 295 H1109" fill="none" stroke="#303930" stroke-width="1.5"/><rect x="965" y="278" width="145" height="34" fill="#131813" stroke="#303930"/><text x="981" y="300" font-family="monospace" font-size="12" letter-spacing="2" fill="#a4b3a5">PRIVACY</text><path d="M754 204 H792" stroke="#1fe15a" stroke-width="2"/><rect x="744" y="196" width="16" height="16" fill="#1fe15a"/>
 <path d="M792 204 L870 113 H1109" stroke="#1fe15a" stroke-opacity=".45" fill="none"/><circle cx="868.08" cy="115.24" r="5" fill="#1fe15a"/>
 <text x="746" y="347" font-family="monospace" font-size="10" letter-spacing="1.5" fill="#a4b3a5">ONE API / MORE WAYS THROUGH</text>
 <path d="M56 335 H683" stroke="#303930"/><text x="57" y="365" font-family="monospace" font-size="11" letter-spacing="1.2" fill="#a4b3a5">INFERENCE → RECEIPT → SETTLEMENT</text></svg>